<?xml version="1.0" encoding="utf-8"?>
<!-- Generator: Adobe Illustrator 22.1.0, SVG Export Plug-In . SVG Version: 6.00 Build 0)  -->
<svg version="1.1" id="layer1" xmlns="http://www.w3.org/2000/svg" xmlns:xlink="http://www.w3.org/1999/xlink" x="0px" y="0px"
	 viewBox="0 0 1080 1080" style="enable-background:new 0 0 1080 1080;" xml:space="preserve">
<style type="text/css">
	.st0{fill:none;}
	.st1{opacity:0.6;fill:#FFFFFF;}
	.st2{opacity:0.8;fill:#FFFFFF;}
	.st3{fill:#FFFEFE;}
</style>
<line class="st0" x1="450" y1="989.8" x2="1068.9" y2="497.8"/>
<line class="st0" x1="538.3" y1="497.8" x2="538.3" y2="805.6"/>
<path class="st1" d="M702.5,791.6l163.8-130.2c11.2-43,17.2-88,17.2-134.5c0-222.5-136.9-413-331.1-491.8
	C418.5,99.1,338.4,236.4,326,394.2C259,1251.1,346.6,1066.1,702.5,791.6z"/>
<path class="st2" d="M803.6,232.5c-146.5,0-265.3,118.8-265.3,265.3l-1,259.1L431,834.1l29,147.7l285-225.3c0.4,0.1,0.9,0.2,1.3,0.3
	l322.7-256.5c0-0.9,0-1.7,0-2.6C1068.9,351.3,950.1,232.5,803.6,232.5z"/>
<path class="st3" d="M533.4,734.4L354.8,31.1C152.9,106.1,9,300.6,9,528.6c0,53.4,7.9,104.9,22.6,153.5
	C16.3,715.6,7.7,752.9,7.7,792.2c0,146.5,118.8,265.3,265.3,265.3c38.2,0,74.5-8.1,107.3-22.6c0.4,0.1,0.7,0.2,1.1,0.4
	c93.2-41.3,158.3-134.6,158.3-243.2C539.7,772.2,537.5,752.9,533.4,734.4z"/>
</svg>
